<svg width="150" height="150" viewBox="0 0 150 150" xmlns="http://www.w3.org/2000/svg"><title>project-steps-step-1</title><g fill="none" fill-rule="evenodd"><path d="M75 30c6.627 0 12-5.373 12-12S81.627 6 75 6s-12 5.373-12 12 5.373 12 12 12z" stroke="#5D6D81" stroke-width="2" fill="#FFF"/><path d="M78.06 20.715v1.4h-5.295v-1.4h1.786V16.12a9.874 9.874 0 0 1 .026-.713l-1.059.863a.627.627 0 0 1-.277.128.767.767 0 0 1-.259 0 .614.614 0 0 1-.217-.081.482.482 0 0 1-.14-.122L72 15.382 74.896 13h1.633v7.715h1.53z" fill="#5D6D81"/><g transform="translate(16 36.52)"><path d="M118 87.682c0 2.18-1.831 2.974-4.069 2.974H4.069C1.831 90.656 0 89.863 0 87.682v-74.34c0-2.18 1.831-3.964 4.069-3.964h109.862c2.238 0 4.069 1.784 4.069 3.965v74.339zm-63.434 3.755c0 10.114-2.066 17.193-8.058 17.193h-1.86 31.095-1.86c-5.99 0-8.057-7.08-8.057-17.193h-11.26z" fill="#F5F5F5"/><path d="M118 87.516c0 2.173-1.831 2.963-4.069 2.963H4.069C1.831 90.48 0 89.69 0 87.516V13.43c0-2.173 1.831-3.95 4.069-3.95h109.862c2.238 0 4.069 1.777 4.069 3.95v74.086zm-63.784 19.693H44.65m31.093 0H61.392m3.986-16.412c0 9.907 2.045 16.412 7.973 16.412M54.216 90.797c0 9.907-2.044 16.412-7.973 16.412" stroke="#5D6D81" stroke-width="2"/><path fill="#FFF" d="M9.568 17.975h99.662v57.05H9.568z"/><path stroke="#5D6D81" stroke-width="2" d="M109.23 75.025H9.568v-57.05h99.662V68.14"/><ellipse fill="#C5CDD7" cx="60.196" cy="83.231" rx="3.588" ry="3.517"/><path d="M97.27 15.146c0-.99-.41-1.98-1.126-2.772L85.192 1.188C84.373.396 83.35 0 82.224 0H25.621c-2.252 0-4.094 1.782-4.094 3.96v70.284H97.27V15.146z" fill="#FFF"/><path d="M33.494 11.503c0 .37-.065.713-.195 1.026a2.396 2.396 0 0 1-1.407 1.347 3.083 3.083 0 0 1-1.11.191H28.75V8.943h2.03c.407 0 .777.065 1.111.194.334.129.619.307.856.534.237.228.42.498.55.81.13.314.196.654.196 1.022zm-1.241 0c0-.253-.034-.481-.1-.685a1.457 1.457 0 0 0-.29-.519 1.254 1.254 0 0 0-.46-.327 1.593 1.593 0 0 0-.621-.114h-.811v3.295h.81c.233 0 .44-.038.621-.114.182-.077.336-.186.461-.327.126-.142.222-.315.29-.52.066-.203.1-.433.1-.689zm4.144.303a.944.944 0 0 0-.034-.253.564.564 0 0 0-.314-.376.705.705 0 0 0-.305-.06c-.21 0-.376.059-.495.177-.12.119-.199.29-.237.512h1.385zm-1.4.633c.036.305.13.526.284.663.153.137.35.206.592.206.129 0 .24-.016.333-.046.094-.03.177-.065.25-.102l.2-.102a.424.424 0 0 1 .193-.046.23.23 0 0 1 .2.095l.324.39a1.644 1.644 0 0 1-.372.315 1.96 1.96 0 0 1-.409.19 2.19 2.19 0 0 1-.42.095c-.14.018-.273.027-.4.027a2.13 2.13 0 0 1-.733-.125 1.69 1.69 0 0 1-.6-.371 1.748 1.748 0 0 1-.405-.612 2.246 2.246 0 0 1-.149-.851c0-.244.043-.475.128-.693a1.702 1.702 0 0 1 .943-.964 1.94 1.94 0 0 1 .766-.144c.246 0 .472.038.676.113.205.075.38.184.528.327.147.143.262.318.344.525.083.208.124.443.124.706 0 .082-.004.148-.01.2a.313.313 0 0 1-.04.123.15.15 0 0 1-.077.063.368.368 0 0 1-.124.018h-2.146zm5.318-1.22a.285.285 0 0 1-.092.095.244.244 0 0 1-.124.028.402.402 0 0 1-.158-.034l-.17-.072a1.882 1.882 0 0 0-.206-.072.938.938 0 0 0-.262-.033.563.563 0 0 0-.325.079.253.253 0 0 0-.113.22c0 .068.025.124.074.168a.677.677 0 0 0 .195.118c.081.034.174.066.276.097.103.03.208.064.316.102.108.037.213.081.316.132.103.05.195.112.276.186a.833.833 0 0 1 .196.27.895.895 0 0 1 .073.38c0 .18-.033.346-.1.498a1.062 1.062 0 0 1-.3.394 1.43 1.43 0 0 1-.491.257 2.258 2.258 0 0 1-1.053.056 2.677 2.677 0 0 1-.368-.095 2.024 2.024 0 0 1-.328-.142 1.424 1.424 0 0 1-.259-.178l.259-.4a.327.327 0 0 1 .109-.111.323.323 0 0 1 .17-.04c.065 0 .123.013.174.041l.167.092c.06.033.13.063.21.091a.93.93 0 0 0 .303.042.78.78 0 0 0 .22-.026.388.388 0 0 0 .143-.072.282.282 0 0 0 .104-.218.235.235 0 0 0-.076-.18.658.658 0 0 0-.197-.12 2.439 2.439 0 0 0-.278-.096 5.479 5.479 0 0 1-.318-.1 2.578 2.578 0 0 1-.317-.135 1.091 1.091 0 0 1-.278-.2.93.93 0 0 1-.197-.298 1.078 1.078 0 0 1-.076-.425c0-.155.03-.302.092-.442.06-.14.152-.262.274-.367.122-.106.275-.19.46-.252.184-.062.399-.093.645-.093a2.117 2.117 0 0 1 .743.134 1.657 1.657 0 0 1 .541.337l-.25.384zm1.97-.799v3.647h-1.113V10.42h1.112zm.114-.998a.567.567 0 0 1-.054.244.644.644 0 0 1-.147.2.722.722 0 0 1-.48.189.637.637 0 0 1-.255-.051.717.717 0 0 1-.21-.138.633.633 0 0 1-.144-.2.603.603 0 0 1 0-.494.648.648 0 0 1 .354-.341.707.707 0 0 1 .736.137.659.659 0 0 1 .146.204c.036.077.054.16.054.25zm2.081 2.63c.184 0 .318-.045.4-.135a.498.498 0 0 0 .124-.35.477.477 0 0 0-.124-.348c-.082-.085-.216-.127-.4-.127-.184 0-.318.042-.4.127a.477.477 0 0 0-.124.348c0 .07.01.135.03.193a.4.4 0 0 0 .096.153.447.447 0 0 0 .163.102.67.67 0 0 0 .235.037zm.861 2.149c0-.087-.04-.15-.118-.188a1.001 1.001 0 0 0-.309-.083 4.04 4.04 0 0 0-.425-.03 6.917 6.917 0 0 1-.468-.026.724.724 0 0 0-.17.156.311.311 0 0 0-.033.336.279.279 0 0 0 .12.11.81.81 0 0 0 .232.071c.097.018.22.027.367.027.16 0 .292-.01.395-.028a.847.847 0 0 0 .246-.078.294.294 0 0 0 .127-.118.318.318 0 0 0 .036-.15zm1.098-3.668v.397a.196.196 0 0 1-.052.144.36.36 0 0 1-.178.081l-.269.06a1.1 1.1 0 0 1 .047.327c0 .183-.039.347-.117.493a1.126 1.126 0 0 1-.319.37 1.48 1.48 0 0 1-.479.236 2.056 2.056 0 0 1-.592.083c-.057 0-.114-.002-.169-.005a1.445 1.445 0 0 1-.161-.02c-.081.05-.122.105-.122.165 0 .061.033.105.1.132a.976.976 0 0 0 .266.057c.11.01.235.017.375.02.14.004.283.012.429.025.145.013.288.035.428.065s.265.08.375.148a.78.78 0 0 1 .266.273c.067.113.1.258.1.434 0 .164-.04.325-.122.482-.081.157-.2.296-.359.418a1.88 1.88 0 0 1-.58.294c-.23.074-.494.11-.79.11a3.09 3.09 0 0 1-.755-.08 1.849 1.849 0 0 1-.528-.213.906.906 0 0 1-.31-.304.703.703 0 0 1-.1-.359c0-.162.047-.296.143-.404a.998.998 0 0 1 .402-.26.623.623 0 0 1-.215-.208.61.61 0 0 1-.08-.327.62.62 0 0 1 .12-.346.91.91 0 0 1 .157-.164.997.997 0 0 1 .222-.137 1.228 1.228 0 0 1-.459-.4 1.004 1.004 0 0 1-.169-.578c0-.183.04-.347.119-.494.079-.146.187-.27.325-.373.137-.102.3-.18.486-.235.186-.055.388-.083.606-.083.316 0 .596.059.84.176h1.119zm1.493.281a2.69 2.69 0 0 1 .222-.183c.077-.056.158-.103.246-.142a1.48 1.48 0 0 1 .615-.125c.203 0 .383.035.54.104.157.069.289.165.396.288.108.123.19.27.244.44.055.17.083.354.083.554v2.317h-1.112V11.75c0-.179-.042-.317-.126-.417-.084-.1-.207-.15-.37-.15a.79.79 0 0 0-.342.076 1.38 1.38 0 0 0-.31.206v2.602h-1.113V10.42h.69c.138 0 .229.061.272.183l.065.211zm6.917 2.356c.16 0 .291-.02.393-.06a.622.622 0 0 0 .238-.154.516.516 0 0 0 .119-.215.927.927 0 0 0-.006-.495.418.418 0 0 0-.129-.19.636.636 0 0 0-.242-.12 1.438 1.438 0 0 0-.38-.042h-.847v1.276h.854zm-.854-3.337v1.266h.631c.134 0 .255-.01.363-.028a.763.763 0 0 0 .274-.099.455.455 0 0 0 .172-.193.713.713 0 0 0 .06-.31.855.855 0 0 0-.047-.304.436.436 0 0 0-.143-.195.609.609 0 0 0-.246-.105 1.72 1.72 0 0 0-.354-.032h-.71zm.71-.89a3.7 3.7 0 0 1 .922.099c.254.065.46.158.621.278.16.12.277.264.35.436.073.17.11.362.11.573 0 .115-.017.226-.05.332a.95.95 0 0 1-.159.3 1.22 1.22 0 0 1-.276.254 1.748 1.748 0 0 1-.405.2c.344.083.599.215.764.398.165.183.247.42.247.71a1.396 1.396 0 0 1-.508 1.099c-.166.14-.37.249-.615.327a2.726 2.726 0 0 1-.836.118h-2.088V8.943h1.923zm3.793 2.04c.115-.197.247-.352.396-.464a.833.833 0 0 1 .515-.169c.167 0 .304.039.409.116l-.072.802c-.012.051-.031.087-.059.105a.198.198 0 0 1-.113.029c-.02 0-.044-.002-.075-.004a3.314 3.314 0 0 1-.2-.02.949.949 0 0 0-.094-.005.572.572 0 0 0-.39.127.996.996 0 0 0-.246.352v2.215h-1.112V10.42h.66c.055 0 .101.005.139.014.037.01.068.024.093.044.025.02.044.047.057.08a.703.703 0 0 1 .034.119l.058.306zm2.834-.563v3.647H60.22V10.42h1.112zm.115-.998a.567.567 0 0 1-.054.244.644.644 0 0 1-.147.2.722.722 0 0 1-.48.189.637.637 0 0 1-.256-.051.717.717 0 0 1-.21-.138.633.633 0 0 1-.143-.2.603.603 0 0 1 0-.494.648.648 0 0 1 .353-.341.707.707 0 0 1 .736.137.659.659 0 0 1 .147.204c.036.077.054.16.054.25zm2.978 2.384a.944.944 0 0 0-.034-.253.564.564 0 0 0-.314-.376.705.705 0 0 0-.305-.06c-.21 0-.376.059-.495.177-.12.119-.199.29-.237.512h1.385zm-1.4.633c.036.305.13.526.284.663.153.137.35.206.592.206.13 0 .24-.016.334-.046.093-.03.176-.065.249-.102l.2-.102a.424.424 0 0 1 .193-.046.23.23 0 0 1 .2.095l.324.39a1.644 1.644 0 0 1-.372.315 1.937 1.937 0 0 1-.409.19 2.19 2.19 0 0 1-.42.095c-.14.018-.273.027-.4.027a2.13 2.13 0 0 1-.733-.125 1.69 1.69 0 0 1-.6-.371 1.748 1.748 0 0 1-.405-.612 2.246 2.246 0 0 1-.149-.851c0-.244.043-.475.128-.693a1.702 1.702 0 0 1 .943-.964 1.94 1.94 0 0 1 .766-.144c.247 0 .472.038.677.113.204.075.38.184.527.327.147.143.262.318.344.525.083.208.124.443.124.706 0 .082-.003.148-.01.2a.313.313 0 0 1-.04.123.15.15 0 0 1-.077.063.368.368 0 0 1-.124.018h-2.145zm3.23 1.628V11.17l-.244-.049a.509.509 0 0 1-.203-.088c-.052-.04-.077-.098-.077-.176v-.429h.524v-.207a1.5 1.5 0 0 1 .102-.566 1.19 1.19 0 0 1 .294-.433 1.33 1.33 0 0 1 .468-.278c.184-.065.394-.098.628-.098a1.81 1.81 0 0 1 .492.067l-.022.53a.184.184 0 0 1-.029.094.19.19 0 0 1-.066.06.331.331 0 0 1-.088.033.422.422 0 0 1-.093.01c-.098 0-.185.01-.262.029a.422.422 0 0 0-.192.1.45.45 0 0 0-.117.19.95.95 0 0 0-.039.297v.172h.872v.746h-.836v2.894h-1.112z" fill="#43525A"/><path fill="#C5CDD7" d="M96.473 13.383L83.344 0h-2.02v15.63h15.149z"/><path stroke="#5D6D81" stroke-width="2" d="M90.892 15.63h-9.568V4.69"/><path d="M97.27 61.87V15.146c0-.99-.41-1.98-1.126-2.772L85.192 1.188C84.373.396 83.35 0 82.224 0H25.621c-2.252 0-4.094 1.782-4.094 3.96v70.284" stroke="#5D6D81" stroke-width="2"/><path d="M80.527 25.008H53.419m8.771 4.69h-8.771" stroke="#ECECEC" stroke-width="2"/><path stroke="#EBB200" stroke-width="2" d="M36.676 25.767l3.75 3.93 6.615-7.033"/><path d="M80.527 41.42H53.419m8.771 5.47h-8.771" stroke="#ECECEC" stroke-width="2"/><path stroke="#EBB200" stroke-width="2" d="M36.676 42.96l3.75 3.93 6.615-7.033"/><rect width="48.635" height="11.723" rx="5.861" fill="#7DDEB1" transform="translate(35.081 56.269)"/><path d="M49.372 61.219a.427.427 0 0 1-.107.12.244.244 0 0 1-.145.04.36.36 0 0 1-.169-.048 31.04 31.04 0 0 0-.204-.109 1.716 1.716 0 0 0-.261-.108 1.063 1.063 0 0 0-.334-.049c-.216 0-.377.045-.482.135a.456.456 0 0 0-.159.366c0 .098.032.18.096.244.063.065.147.12.25.167.103.047.222.09.354.129.133.039.27.082.408.13.138.048.274.104.407.169.133.064.251.147.354.247.104.1.187.222.251.366.064.143.095.317.095.52 0 .224-.04.435-.119.63a1.48 1.48 0 0 1-.346.514 1.61 1.61 0 0 1-.559.344 2.13 2.13 0 0 1-.755.125c-.154 0-.312-.016-.472-.047a2.847 2.847 0 0 1-.888-.334 1.792 1.792 0 0 1-.344-.26l.341-.528a.339.339 0 0 1 .107-.096.284.284 0 0 1 .145-.038c.068 0 .137.021.206.063.07.043.148.09.236.14.087.052.188.099.301.141.114.042.248.064.402.064.21 0 .372-.046.488-.136.116-.09.174-.233.174-.429a.4.4 0 0 0-.096-.277.737.737 0 0 0-.25-.177 2.339 2.339 0 0 0-.353-.124 10.687 10.687 0 0 1-.406-.119 3.002 3.002 0 0 1-.405-.16 1.17 1.17 0 0 1-.603-.638 1.511 1.511 0 0 1-.096-.573 1.38 1.38 0 0 1 .443-.999 1.63 1.63 0 0 1 .535-.326c.212-.08.454-.121.726-.121.152 0 .3.011.445.035a2.376 2.376 0 0 1 .774.267c.112.063.213.135.301.215l-.286.525zm3.105 2.986c.154 0 .292-.025.414-.075a.837.837 0 0 0 .308-.215.947.947 0 0 0 .193-.343 1.47 1.47 0 0 0 .066-.459V60.23h1.152v2.883c0 .298-.05.572-.148.822A1.84 1.84 0 0 1 53.366 65c-.263.1-.56.15-.89.15-.33 0-.629-.05-.892-.15a1.82 1.82 0 0 1-1.094-1.066 2.235 2.235 0 0 1-.147-.822V60.23h1.152v2.88c0 .171.022.324.067.459.044.135.108.25.192.344a.828.828 0 0 0 .309.217c.121.05.26.075.414.075zm4.996.04c.152 0 .277-.018.373-.056a.59.59 0 0 0 .227-.147.49.49 0 0 0 .113-.204.88.88 0 0 0-.006-.471.397.397 0 0 0-.122-.18.604.604 0 0 0-.23-.114 1.366 1.366 0 0 0-.362-.04h-.804v1.213h.811zm-.81-3.17v1.203h.599c.127 0 .242-.01.344-.027a.725.725 0 0 0 .26-.093.432.432 0 0 0 .164-.184.677.677 0 0 0 .057-.294.812.812 0 0 0-.045-.29.414.414 0 0 0-.136-.185.578.578 0 0 0-.233-.1 1.634 1.634 0 0 0-.336-.03h-.675zm.674-.845c.343 0 .635.031.876.094.24.062.437.15.59.263.152.114.262.252.332.415.069.162.104.344.104.544 0 .11-.016.215-.048.316a.903.903 0 0 1-.15.284 1.16 1.16 0 0 1-.262.242 1.66 1.66 0 0 1-.386.19c.328.078.57.204.726.378.157.174.236.399.236.675a1.326 1.326 0 0 1-.482 1.044 1.715 1.715 0 0 1-.585.31 2.59 2.59 0 0 1-.794.112H55.51V60.23h1.827zm8.32 0v4.867H64.64v-2.8a4.703 4.703 0 0 1 .024-.44l-1.32 2.502a.428.428 0 0 1-.402.237h-.156a.428.428 0 0 1-.402-.237l-1.32-2.509.018.236c.004.077.006.147.006.212v2.8h-1.015V60.23h.879c.05 0 .094.001.131.003a.342.342 0 0 1 .1.02.23.23 0 0 1 .08.052.408.408 0 0 1 .07.099l1.279 2.469a4.805 4.805 0 0 1 .252.544 6.87 6.87 0 0 1 .121-.287c.042-.094.087-.183.135-.268l1.274-2.458a.408.408 0 0 1 .07-.099.23.23 0 0 1 .08-.052.342.342 0 0 1 .1-.02c.038-.002.082-.003.132-.003h.88zm2.12 4.867h-1.16V60.23h1.16v4.867zm4.529-3.972h-1.398v3.972h-1.152v-3.972H68.36v-.895h3.947v.895z" fill="#FFF"/></g></g></svg>