<svg width="150" height="150" viewBox="0 0 150 150" xmlns="http://www.w3.org/2000/svg" xmlns:xlink="http://www.w3.org/1999/xlink"><title>project-steps-step-2</title><defs><path d="M0 64.49a3.003 3.003 0 0 1 3.005-3.003H9.11a3.002 3.002 0 0 1 3.006 3.001v6.809c0 1.657-1.342 3-2.994 3H2.995A3 3 0 0 1 0 71.293V64.49z" id="a"/><path d="M0 49.119a3.003 3.003 0 0 1 3.005-3.004H9.11a3.002 3.002 0 0 1 3.006 3.001v6.809c0 1.657-1.342 3-2.994 3H2.995A3 3 0 0 1 0 55.922v-6.803z" id="b"/><path d="M0 33.747a3.003 3.003 0 0 1 3.005-3.003H9.11a3.002 3.002 0 0 1 3.006 3v6.809c0 1.657-1.342 3-2.994 3H2.995A3 3 0 0 1 0 40.55v-6.803z" id="c"/><path d="M0 18.375a3.003 3.003 0 0 1 3.005-3.003H9.11a3.002 3.002 0 0 1 3.006 3v6.811c0 1.657-1.342 3-2.994 3H2.995A3 3 0 0 1 0 25.178v-6.803z" id="d"/><path d="M0 3.003A3.003 3.003 0 0 1 3.005 0H9.11a3.002 3.002 0 0 1 3.006 3.001V9.81c0 1.657-1.342 3-2.994 3H2.995A3 3 0 0 1 0 9.806V3.003z" id="e"/><path d="M14.539 64.49a3.003 3.003 0 0 1 3.005-3.003h6.104a3.002 3.002 0 0 1 3.006 3.001v6.809c0 1.657-1.343 3-2.995 3h-6.126a3 3 0 0 1-2.994-3.004V64.49z" id="f"/><path d="M14.539 49.119a3.003 3.003 0 0 1 3.005-3.004h6.104a3.002 3.002 0 0 1 3.006 3.001v6.809c0 1.657-1.343 3-2.995 3h-6.126a3 3 0 0 1-2.994-3.003v-6.803z" id="g"/><path d="M14.539 33.747a3.003 3.003 0 0 1 3.005-3.003h6.104a3.002 3.002 0 0 1 3.006 3v6.809c0 1.657-1.343 3-2.995 3h-6.126a3 3 0 0 1-2.994-3.003v-6.803z" id="h"/><path d="M14.539 18.375a3.003 3.003 0 0 1 3.005-3.003h6.104a3.002 3.002 0 0 1 3.006 3v6.811c0 1.657-1.343 3-2.995 3h-6.126a3 3 0 0 1-2.994-3.004v-6.803z" id="i"/><path d="M14.539 3.003A3.003 3.003 0 0 1 17.544 0h6.104a3.002 3.002 0 0 1 3.006 3.001V9.81c0 1.657-1.343 3-2.995 3h-6.126a3 3 0 0 1-2.994-3.004V3.003z" id="j"/><path d="M29.077 64.49a3.003 3.003 0 0 1 3.005-3.003h6.105a3.002 3.002 0 0 1 3.006 3.001v6.809c0 1.657-1.343 3-2.995 3h-6.126a3 3 0 0 1-2.995-3.004V64.49z" id="k"/><path d="M29.077 49.119a3.003 3.003 0 0 1 3.005-3.004h6.105a3.002 3.002 0 0 1 3.006 3.001v6.809c0 1.657-1.343 3-2.995 3h-6.126a3 3 0 0 1-2.995-3.003v-6.803z" id="l"/><path d="M29.077 33.747a3.003 3.003 0 0 1 3.005-3.003h6.105a3.002 3.002 0 0 1 3.006 3v6.809c0 1.657-1.343 3-2.995 3h-6.126a3 3 0 0 1-2.995-3.003v-6.803z" id="m"/><path d="M29.077 18.375a3.003 3.003 0 0 1 3.005-3.003h6.105a3.002 3.002 0 0 1 3.006 3v6.811c0 1.657-1.343 3-2.995 3h-6.126a3 3 0 0 1-2.995-3.004v-6.803z" id="n"/><path d="M29.077 3.003A3.003 3.003 0 0 1 32.082 0h6.105a3.002 3.002 0 0 1 3.006 3.001V9.81c0 1.657-1.343 3-2.995 3h-6.126a3 3 0 0 1-2.995-3.004V3.003z" id="o"/><path d="M43.616 64.49a3.003 3.003 0 0 1 3.005-3.003h6.104a3.002 3.002 0 0 1 3.006 3.001v6.809c0 1.657-1.343 3-2.995 3h-6.125a3 3 0 0 1-2.995-3.004V64.49z" id="p"/><path d="M43.616 49.119a3.003 3.003 0 0 1 3.005-3.004h6.104a3.002 3.002 0 0 1 3.006 3.001v6.809c0 1.657-1.343 3-2.995 3h-6.125a3 3 0 0 1-2.995-3.003v-6.803z" id="q"/><path d="M43.616 33.747a3.003 3.003 0 0 1 3.005-3.003h6.104a3.002 3.002 0 0 1 3.006 3v6.809c0 1.657-1.343 3-2.995 3h-6.125a3 3 0 0 1-2.995-3.003v-6.803z" id="r"/><path d="M43.616 18.375a3.003 3.003 0 0 1 3.005-3.003h6.104a3.002 3.002 0 0 1 3.006 3v6.811c0 1.657-1.343 3-2.995 3h-6.125a3 3 0 0 1-2.995-3.004v-6.803z" id="s"/><path d="M43.616 3.003A3.003 3.003 0 0 1 46.62 0h6.104a3.002 3.002 0 0 1 3.006 3.001V9.81c0 1.657-1.343 3-2.995 3H46.61a3 3 0 0 1-2.995-3.004V3.003z" id="t"/></defs><g fill="none" fill-rule="evenodd"><g transform="rotate(90 41.178 93.928)"><path d="M92.078 114.727c0 2.657-2.072 4.831-4.604 4.831H4.604c-2.532 0-4.604-2.174-4.604-4.83V4.83C0 2.174 2.072 0 4.604 0h82.87c2.532 0 4.604 2.174 4.604 4.83v109.897z" fill="#F5F5F5"/><path fill="#FFF" d="M81.578 101.624H10.5v-83.69h71.078v75.2"/><path stroke="#5D6D81" stroke-width="2" d="M81.578 101.624H10.5v-83.69h71.078v75.2"/><path d="M92.078 114.727c0 2.657-2.072 4.831-4.604 4.831H4.604c-2.532 0-4.604-2.174-4.604-4.83V4.83C0 2.174 2.072 0 4.604 0h82.87c2.532 0 4.604 2.174 4.604 4.83v109.897z" stroke="#5D6D81" stroke-width="2"/><ellipse fill="#C5CDD7" cx="46.443" cy="109.737" rx="2.827" ry="2.989"/><path d="M35.539 10.248h19.384" stroke="#5D6D81" stroke-width="2"/><g transform="translate(16.154 22.204)"><use fill="#7DDEB1" xlink:href="#a"/><path stroke="#5D6D81" stroke-width="2" d="M1 64.49v6.803a2 2 0 0 0 1.995 2.004H9.12c1.1 0 1.994-.896 1.994-2v-6.809a2.002 2.002 0 0 0-2.006-2.001H3.005A2.002 2.002 0 0 0 1 64.49z"/><use fill="#FBD86A" xlink:href="#b"/><path stroke="#5D6D81" stroke-width="2" d="M1 49.119v6.803a2 2 0 0 0 1.995 2.003H9.12c1.1 0 1.994-.896 1.994-2v-6.809a2.002 2.002 0 0 0-2.006-2H3.005A2 2 0 0 0 1 49.118z"/><use fill="#F08481" xlink:href="#c"/><path stroke="#5D6D81" stroke-width="2" d="M1 33.747v6.803a2 2 0 0 0 1.995 2.003H9.12c1.1 0 1.994-.895 1.994-2v-6.809a2.002 2.002 0 0 0-2.006-2H3.005A2.002 2.002 0 0 0 1 33.747z"/><use fill="#EEB1B1" xlink:href="#d"/><path stroke="#5D6D81" stroke-width="2" d="M1 18.375v6.803a2 2 0 0 0 1.995 2.004H9.12c1.1 0 1.994-.896 1.994-2v-6.81a2.002 2.002 0 0 0-2.006-2H3.005A2.002 2.002 0 0 0 1 18.375z"/><path d="M6.058 24.766c1.561 0 2.827-1.339 2.827-2.99 0-1.65-1.266-2.988-2.827-2.988-1.562 0-2.827 1.338-2.827 2.989 0 1.65 1.265 2.989 2.827 2.989z" fill="#5D6D81"/><use fill="#EBB200" xlink:href="#e"/><path stroke="#5D6D81" stroke-width="2" d="M1 3.003v6.803a2 2 0 0 0 1.995 2.004H9.12c1.1 0 1.994-.896 1.994-2V3.001A2.002 2.002 0 0 0 9.11 1H3.005A2.002 2.002 0 0 0 1 3.003z"/><path fill="#5D6D81" d="M5.92 8.324l-1.662.924.317-1.957-1.344-1.385 1.858-.286.83-1.78.831 1.78 1.858.286L7.264 7.29l.317 1.957z"/><use fill="#FFF" xlink:href="#f"/><path stroke="#5D6D81" stroke-width="2" d="M15.539 64.49v6.803a2 2 0 0 0 1.994 2.004h6.126c1.1 0 1.995-.896 1.995-2v-6.809a2.002 2.002 0 0 0-2.006-2.001h-6.104c-1.11 0-2.005.896-2.005 2.003z"/><path d="M20.596 70.88c1.562 0 2.827-1.337 2.827-2.988 0-1.65-1.265-2.989-2.827-2.989-1.561 0-2.827 1.338-2.827 2.989 0 1.65 1.266 2.989 2.827 2.989z" fill="#5D6D81"/><use fill="#EBB200" xlink:href="#g"/><path stroke="#5D6D81" stroke-width="2" d="M15.539 49.119v6.803a2 2 0 0 0 1.994 2.003h6.126c1.1 0 1.995-.896 1.995-2v-6.809a2.002 2.002 0 0 0-2.006-2h-6.104c-1.11 0-2.005.895-2.005 2.003z"/><use fill="#BDE495" xlink:href="#h"/><path stroke="#5D6D81" stroke-width="2" d="M15.539 33.747v6.803a2 2 0 0 0 1.994 2.003h6.126c1.1 0 1.995-.895 1.995-2v-6.809a2.002 2.002 0 0 0-2.006-2h-6.104c-1.11 0-2.005.896-2.005 2.003z"/><ellipse fill="#5D6D81" cx="18.577" cy="38.429" rx="1.615" ry="1.708"/><ellipse fill="#5D6D81" cx="22.616" cy="35.867" rx="1.615" ry="1.708"/><use fill="#F08481" xlink:href="#i"/><path stroke="#5D6D81" stroke-width="2" d="M15.539 18.375v6.803a2 2 0 0 0 1.994 2.004h6.126c1.1 0 1.995-.896 1.995-2v-6.81a2.002 2.002 0 0 0-2.006-2h-6.104c-1.11 0-2.005.896-2.005 2.003z"/><use fill="#7DDEB1" xlink:href="#j"/><path stroke="#5D6D81" stroke-width="2" d="M15.539 3.003v6.803a2 2 0 0 0 1.994 2.004h6.126c1.1 0 1.995-.896 1.995-2V3.001A2.002 2.002 0 0 0 23.648 1h-6.104c-1.11 0-2.005.896-2.005 2.003z"/><path d="M20.782 5.487l3.497 2.019-.854 1.479-3.497-2.02-1.281 2.22-1.4-.808 3.417-5.917 1.399.808-1.281 2.219z" fill="#5D6D81"/><use fill="#7DDEB1" xlink:href="#k"/><path stroke="#5D6D81" stroke-width="2" d="M30.077 64.49v6.803a2 2 0 0 0 1.995 2.004h6.126c1.1 0 1.995-.896 1.995-2v-6.809a2.002 2.002 0 0 0-2.006-2.001h-6.105a2.002 2.002 0 0 0-2.005 2.003z"/><use fill="#F08481" xlink:href="#l"/><path stroke="#5D6D81" stroke-width="2" d="M30.077 49.119v6.803a2 2 0 0 0 1.995 2.003h6.126c1.1 0 1.995-.896 1.995-2v-6.809a2.002 2.002 0 0 0-2.006-2h-6.105a2.002 2.002 0 0 0-2.005 2.003z"/><use fill="#F5F5F5" xlink:href="#m"/><path stroke="#5D6D81" stroke-width="2" d="M30.077 33.747v6.803a2 2 0 0 0 1.995 2.003h6.126c1.1 0 1.995-.895 1.995-2v-6.809a2.002 2.002 0 0 0-2.006-2h-6.105a2.002 2.002 0 0 0-2.005 2.003z"/><use fill="#7DDEB1" xlink:href="#n"/><path stroke="#5D6D81" stroke-width="2" d="M30.077 18.375v6.803a2 2 0 0 0 1.995 2.004h6.126c1.1 0 1.995-.896 1.995-2v-6.81a2.002 2.002 0 0 0-2.006-2h-6.105a2.002 2.002 0 0 0-2.005 2.003z"/><path fill="#5D6D81" d="M33.116 19.642h4.038v4.27h-4.038z"/><use fill="#BDE495" xlink:href="#o"/><path stroke="#5D6D81" stroke-width="2" d="M30.077 3.003v6.803a2 2 0 0 0 1.995 2.004h6.126c1.1 0 1.995-.896 1.995-2V3.001A2.002 2.002 0 0 0 38.187 1h-6.105a2.002 2.002 0 0 0-2.005 2.003z"/><path fill="#5D6D81" d="M32.308 3.416h1.615v5.978h-1.615zm2.423 0h1.615v5.978h-1.615zm2.423 0h1.615v5.978h-1.615z"/><use fill="#FBD86A" xlink:href="#p"/><path stroke="#5D6D81" stroke-width="2" d="M44.616 64.49v6.803a2 2 0 0 0 1.995 2.004h6.125c1.1 0 1.995-.896 1.995-2v-6.809a2.002 2.002 0 0 0-2.006-2.001h-6.104c-1.11 0-2.005.896-2.005 2.003z"/><use fill="#7DDEB1" xlink:href="#q"/><path stroke="#5D6D81" stroke-width="2" d="M44.616 49.119v6.803a2 2 0 0 0 1.995 2.003h6.125c1.1 0 1.995-.896 1.995-2v-6.809a2.002 2.002 0 0 0-2.006-2h-6.104c-1.11 0-2.005.895-2.005 2.003z"/><use fill="#EEB1B1" xlink:href="#r"/><path stroke="#5D6D81" stroke-width="2" d="M44.616 33.747v6.803a2 2 0 0 0 1.995 2.003h6.125c1.1 0 1.995-.895 1.995-2v-6.809a2.002 2.002 0 0 0-2.006-2h-6.104c-1.11 0-2.005.896-2.005 2.003z"/><path d="M50.071 35.161c.255-.095.529-.148.814-.148 1.338 0 2.423 1.147 2.423 2.562 0 1.415-1.085 2.562-2.423 2.562s-2.423-1.147-2.423-2.562c0-.301.05-.591.14-.86a1.548 1.548 0 0 1-.14.006c-.892 0-1.615-.764-1.615-1.708 0-.943.723-1.708 1.615-1.708s1.615.765 1.615 1.708c0 .05-.002.1-.006.148zm0 0c-.067.826-.689 1.483-1.47 1.554a2.504 2.504 0 0 1 1.47-1.554z" fill="#5D6D81"/><use fill="#FFF" xlink:href="#s"/><path stroke="#5D6D81" stroke-width="2" d="M44.616 18.375v6.803a2 2 0 0 0 1.995 2.004h6.125c1.1 0 1.995-.896 1.995-2v-6.81a2.002 2.002 0 0 0-2.006-2h-6.104c-1.11 0-2.005.896-2.005 2.003z"/><use fill="#EBB200" xlink:href="#t"/><path stroke="#5D6D81" stroke-width="2" d="M44.616 3.003v6.803a2 2 0 0 0 1.995 2.004h6.125c1.1 0 1.995-.896 1.995-2V3.001A2.002 2.002 0 0 0 52.725 1h-6.104c-1.11 0-2.005.896-2.005 2.003z"/><path d="M6.058 70.027c1.115 0 2.019-.956 2.019-2.135 0-1.18-.904-2.135-2.02-2.135-1.114 0-2.019.956-2.019 2.135 0 1.179.905 2.135 2.02 2.135zm1.211-16.226h1.615v1.708H7.269z" stroke="#5D6D81"/><path fill="#5D6D81" d="M7.991 34.06l-.51 6.212-4.615-2.664zm12.201-15.272l2.424 5.124h-4.847zM49.27 49.531l2.423 5.124h-4.846zm.807 16.226l2.305 1.77-.88 2.865h-2.849l-.88-2.865zm0-58.071L48.178 8.74l.363-2.235-1.536-1.584 2.123-.326.95-2.034.949 2.034 2.123.326-1.536 1.584.362 2.235z"/><rect fill="#5D6D81" x="32.308" y="64.903" width="5.654" height="5.978" rx="2.827"/><path fill="#5D6D81" d="M32.308 53.801h2.423v2.562h-2.423zm2.423-5.124h4.038v4.27h-4.038z"/><path stroke="#5D6D81" d="M4.038 49.531h2.423v2.562H4.038z"/><path fill="#5D6D81" d="M53.419 22.549l-3.02 3.02-2.855-2.857zm-7.491-1.545l3.02-3.019 2.855 2.856z"/><rect fill="#5D6D81" x="17.769" y="49.531" width="5.654" height="5.978" rx="2.827"/><path fill="#5D6D81" d="M35.135 34.16l2.688 2.065-1.026 3.342h-3.324l-1.027-3.342z"/></g></g><g transform="translate(63 6)"><ellipse stroke="#5D6D81" stroke-width="2" fill="#FFF" cx="12.001" cy="12" rx="12.001" ry="12"/><path d="M14.83 14.597c.213 0 .38.059.503.176.123.116.185.27.185.461v1.147H9v-.637c0-.123.025-.255.076-.395s.14-.268.268-.382l2.673-2.694c.23-.23.429-.448.598-.656.17-.208.31-.413.42-.614.11-.202.194-.404.249-.605.055-.202.082-.415.082-.64 0-.37-.088-.653-.264-.85-.176-.198-.444-.297-.805-.297a1.18 1.18 0 0 0-1.158.809c-.09.233-.206.388-.35.465-.145.076-.35.093-.618.05l-1.044-.184c.068-.463.199-.866.392-1.21s.433-.63.719-.86c.286-.229.614-.4.983-.512.37-.113.766-.169 1.19-.169.459 0 .872.067 1.239.2.367.134.68.32.939.558a2.4 2.4 0 0 1 .595.85c.138.329.207.691.207 1.086 0 .34-.048.654-.144.942a3.714 3.714 0 0 1-.391.825 5.761 5.761 0 0 1-.576.758c-.219.244-.451.491-.697.742l-1.814 1.86c.233-.073.464-.128.694-.166a3.91 3.91 0 0 1 .636-.058h1.731z" fill="#5D6D81"/></g></g></svg>