<svg width="150" height="150" viewBox="0 0 150 150" xmlns="http://www.w3.org/2000/svg" xmlns:xlink="http://www.w3.org/1999/xlink"><title>project-steps-step-3</title><defs><rect id="a" x="13.47" y="10.664" width="42.866" height="50.542" rx="4"/></defs><g fill="none" fill-rule="evenodd"><g transform="translate(63 6)"><ellipse stroke="#5D6D81" stroke-width="2" fill="#FFF" cx="11.501" cy="11.5" rx="11.501" ry="11.5"/><path d="M8.241 9.707c.065-.455.188-.852.371-1.19.183-.339.41-.62.681-.846a2.73 2.73 0 0 1 .932-.505c.35-.11.726-.166 1.128-.166.434 0 .82.064 1.157.191.338.128.624.3.857.517.233.217.41.47.53.755.121.286.181.588.181.906 0 .288-.028.542-.084.761-.056.22-.14.41-.25.57a1.56 1.56 0 0 1-.41.408 2.48 2.48 0 0 1-.558.279c.973.355 1.46 1.044 1.46 2.067 0 .485-.085.907-.254 1.266a2.59 2.59 0 0 1-.679.896 2.867 2.867 0 0 1-.985.536c-.374.12-.764.179-1.17.179-.418 0-.79-.047-1.116-.141a2.53 2.53 0 0 1-.868-.439 2.868 2.868 0 0 1-.667-.761A5.2 5.2 0 0 1 8 13.887l.832-.351c.217-.088.418-.11.603-.069a.567.567 0 0 1 .398.288c.181.347.373.599.576.755.203.157.441.235.715.235.209 0 .39-.036.545-.11a1.19 1.19 0 0 0 .386-.281 1.17 1.17 0 0 0 .232-.392c.053-.146.079-.294.079-.445a3.15 3.15 0 0 0-.04-.53.699.699 0 0 0-.22-.404c-.12-.112-.302-.199-.545-.26-.243-.06-.582-.09-1.016-.09V10.89c.365 0 .661-.029.886-.087.225-.059.4-.14.522-.242a.73.73 0 0 0 .244-.372c.04-.147.06-.307.06-.483 0-.36-.083-.636-.25-.83-.167-.194-.421-.292-.763-.292a1.09 1.09 0 0 0-.702.23 1.17 1.17 0 0 0-.395.566c-.085.23-.195.383-.332.458-.137.075-.332.092-.585.05l-.989-.182z" fill="#5D6D81"/></g><g transform="translate(16 45.213)"><path d="M113.931 81.787H4.069c-2.238 0-4.069-.79-4.069-2.963V4.739C0 2.565 1.831.787 4.069.787h109.862C116.169.787 118 2.565 118 4.74v74.085c0 2.173-1.831 2.963-4.069 2.963zM55.12 82.2c0 10.062-2.02 17.106-7.878 17.106h-1.817H75.82h-1.818c-5.857 0-7.877-7.044-7.877-17.106H55.12z" fill="#F5F5F5"/><path d="M118 78.824c0 2.173-1.831 2.963-4.069 2.963H4.069c-2.238 0-4.069-.79-4.069-2.963V4.739C0 2.565 1.831.787 4.069.787h109.862C116.169.787 118 2.565 118 4.74v74.085zM54.069 98.529h-9.353m30.396 0H61.083M64.98 82.2c0 9.857 1.999 16.329 7.794 16.329M54.069 82.2c0 9.857-1.999 16.329-7.794 16.329" stroke="#5D6D81" stroke-width="2"/><path fill="#FFF" d="M10.353 6.776h98.981v58.318H10.353z"/><rect width="47.542" height="11.664" rx="5.832" transform="translate(58.674 46.432)" fill="#7DDEB1"/><path d="M69.157 52.268c0 .316-.055.607-.164.874a2.046 2.046 0 0 1-.46.693 2.089 2.089 0 0 1-.716.456 2.532 2.532 0 0 1-.928.164H65.19v-4.371h1.698c.34 0 .65.055.928.165a2.03 2.03 0 0 1 1.176 1.148c.11.266.164.557.164.87zm-1.038 0c0-.216-.028-.411-.084-.585a1.25 1.25 0 0 0-.242-.443 1.049 1.049 0 0 0-.385-.279 1.309 1.309 0 0 0-.52-.097h-.677v2.81h.678c.194 0 .367-.032.519-.097.152-.065.28-.158.385-.279a1.25 1.25 0 0 0 .242-.442c.056-.174.084-.37.084-.588zm5.928 0c0 .316-.055.61-.164.882a2.126 2.126 0 0 1-.46.709 2.112 2.112 0 0 1-.716.473 2.433 2.433 0 0 1-.928.17c-.34 0-.65-.056-.93-.17a2.125 2.125 0 0 1-.719-.473 2.114 2.114 0 0 1-.462-.71 2.35 2.35 0 0 1-.163-.881c0-.316.054-.61.163-.882.11-.272.263-.508.462-.708.2-.2.439-.357.719-.471.28-.114.59-.171.93-.171.34 0 .65.057.928.172.28.115.518.273.716.473.198.2.351.436.46.708.11.272.164.565.164.879zm-1.038 0c0-.216-.028-.411-.084-.584a1.236 1.236 0 0 0-.242-.44 1.042 1.042 0 0 0-.385-.275 1.327 1.327 0 0 0-.52-.096c-.195 0-.37.032-.523.096a1.039 1.039 0 0 0-.387.276c-.105.12-.185.266-.241.439a1.89 1.89 0 0 0-.084.584c0 .218.028.413.084.586.056.173.136.32.241.44.105.12.234.211.387.274.153.063.328.095.524.095.194 0 .367-.032.519-.095.152-.063.28-.154.385-.274.105-.12.186-.267.242-.44a1.9 1.9 0 0 0 .084-.586zm7.59-2.184l-1.35 4.37h-.918l-.822-2.708a1.533 1.533 0 0 1-.045-.14 7.246 7.246 0 0 1-.042-.16l-.042.16a1.533 1.533 0 0 1-.045.14l-.834 2.709h-.918l-1.35-4.371h.852c.088 0 .161.02.22.06.06.04.098.093.116.159l.6 2.28c.018.072.036.15.054.235l.054.266c.036-.188.08-.355.132-.501l.708-2.28a.343.343 0 0 1 .33-.219h.3c.088 0 .159.02.213.061a.39.39 0 0 1 .123.158l.702 2.28c.052.14.096.299.132.477a7.191 7.191 0 0 1 .102-.477l.6-2.28a.285.285 0 0 1 .114-.153.355.355 0 0 1 .216-.066h.798zm4.25 0v4.37h-.527a.46.46 0 0 1-.197-.037.48.48 0 0 1-.157-.13l-2.061-2.607a3.718 3.718 0 0 1 .02.432v2.343h-.893v-4.371h.534a.86.86 0 0 1 .11.006.29.29 0 0 1 .082.022.27.27 0 0 1 .069.047c.022.02.047.047.075.08l2.079 2.626a3.617 3.617 0 0 1-.027-.468v-2.313h.894zm3.48 3.56v.81h-2.633v-4.37h1.014v3.56h1.62zm4.807-1.376c0 .316-.055.61-.164.882a2.126 2.126 0 0 1-.46.709 2.112 2.112 0 0 1-.716.473 2.433 2.433 0 0 1-.928.17c-.34 0-.65-.056-.93-.17a2.125 2.125 0 0 1-.719-.473 2.114 2.114 0 0 1-.462-.71 2.35 2.35 0 0 1-.163-.881c0-.316.054-.61.163-.882.11-.272.263-.508.462-.708.2-.2.439-.357.719-.471.28-.114.59-.171.93-.171.34 0 .65.057.928.172.28.115.518.273.716.473.198.2.351.436.46.708.11.272.164.565.164.879zm-1.038 0c0-.216-.028-.411-.084-.584a1.236 1.236 0 0 0-.242-.44 1.042 1.042 0 0 0-.385-.275 1.327 1.327 0 0 0-.52-.096c-.195 0-.37.032-.523.096a1.039 1.039 0 0 0-.387.276c-.105.12-.185.266-.241.439a1.89 1.89 0 0 0-.084.584c0 .218.028.413.084.586.056.173.136.32.241.44.105.12.234.211.387.274.153.063.328.095.524.095.194 0 .367-.032.519-.095.152-.063.28-.154.385-.274.105-.12.186-.267.242-.44a1.9 1.9 0 0 0 .084-.586zm3.945.516l-.405-1.197a8.212 8.212 0 0 1-.198-.603 4.723 4.723 0 0 1-.192.609l-.402 1.19h1.197zm1.61 1.67h-.785a.343.343 0 0 1-.213-.061.39.39 0 0 1-.123-.157l-.258-.762h-1.662l-.258.762a.365.365 0 0 1-.119.151.33.33 0 0 1-.211.068h-.792l1.692-4.371h1.038l1.692 4.37zm4.312-2.186c0 .316-.055.607-.164.874a2.046 2.046 0 0 1-.46.693 2.089 2.089 0 0 1-.716.456 2.532 2.532 0 0 1-.928.164h-1.698v-4.371h1.698c.34 0 .65.055.928.165a2.03 2.03 0 0 1 1.176 1.148c.11.266.164.557.164.87zm-1.038 0c0-.216-.028-.411-.084-.585a1.25 1.25 0 0 0-.242-.443 1.049 1.049 0 0 0-.385-.279 1.309 1.309 0 0 0-.52-.097h-.677v2.81h.678c.194 0 .367-.032.519-.097.152-.065.28-.158.385-.279a1.25 1.25 0 0 0 .242-.442c.056-.174.084-.37.084-.588z" fill="#FFF"/><path d="M61.792 32.435h40.528m-40.528 5.443h40.528M62.571 15.329h38.969v11.664H62.571z" stroke="#ECECEC" stroke-width="2"/><path d="M75.068 18.606l-1.513 4.887h-1.029l-.921-3.028a1.711 1.711 0 0 1-.05-.156 8.086 8.086 0 0 1-.048-.18 8.084 8.084 0 0 1-.047.18 1.711 1.711 0 0 1-.05.156l-.935 3.028h-1.029l-1.512-4.887h.954c.099 0 .181.023.247.067.067.045.11.104.13.178l.672 2.55a19.562 19.562 0 0 1 .121.56c.04-.21.09-.397.148-.56L71 18.85a.385.385 0 0 1 .37-.245h.336c.098 0 .178.023.238.07.06.045.107.104.138.175l.787 2.55c.058.156.108.334.148.533a8.024 8.024 0 0 1 .114-.534l.673-2.549a.319.319 0 0 1 .127-.17.399.399 0 0 1 .242-.075h.895zm1.63 4.887h-1.143v-4.887h1.143v4.887zm5.225-4.887v4.887h-.592a.516.516 0 0 1-.22-.042.539.539 0 0 1-.177-.145l-2.31-2.915a4.147 4.147 0 0 1 .024.483v2.62h-1.002v-4.888h.599c.05 0 .09.003.124.007a.303.303 0 0 1 .168.077.882.882 0 0 1 .084.09l2.33 2.936a4.035 4.035 0 0 1-.03-.524v-2.586h1.002zm5.224 0v4.887h-.591a.516.516 0 0 1-.22-.042.539.539 0 0 1-.177-.145l-2.31-2.915a4.147 4.147 0 0 1 .024.483v2.62H82.87v-4.888h.598c.05 0 .091.003.125.007a.303.303 0 0 1 .168.077.882.882 0 0 1 .084.09l2.33 2.936a4.035 4.035 0 0 1-.03-.524v-2.586h1.001zm2.091.872v1.14h1.54v.84h-1.54v1.163h2.01v.872h-3.153v-4.887h3.154v.872h-2.01zm4.304 1.426c.154 0 .286-.02.395-.059a.714.714 0 0 0 .267-.162.62.62 0 0 0 .151-.244.931.931 0 0 0 .047-.3c0-.214-.07-.382-.21-.503-.14-.12-.357-.181-.65-.181h-.457v1.449h.457zm2.414 2.59h-1.03c-.19 0-.326-.072-.41-.215l-.813-1.42a.393.393 0 0 0-.128-.132.399.399 0 0 0-.201-.042h-.29v1.808h-1.136v-4.887h1.594c.354 0 .656.037.906.11.25.072.454.173.612.303.158.13.273.283.344.46.072.176.108.368.108.576 0 .16-.021.309-.064.45a1.385 1.385 0 0 1-.496.71 1.644 1.644 0 0 1-.422.232 1.028 1.028 0 0 1 .383.346l1.043 1.7z" fill="#5D6D81"/><use fill="#FFF" xlink:href="#a"/><rect stroke="#ECECEC" stroke-width="2" x="14.47" y="11.664" width="40.866" height="48.542" rx="4"/><g transform="translate(16.588 14.551)"><path d="M17.926 4.665v9.331m14.029 0l-7.015 3.888m-21.043 0l6.235 2.333M3.897 34.99l7.794-6.998m19.484 3.888l-7.014-5.443m-3.897 13.219l10.911-7.776M3.897 3.11l14.029 2.333" stroke="#5D6D81" stroke-width="2"/><ellipse fill="#FFF" cx="17.926" cy="4.665" rx="3.897" ry="3.888"/><ellipse fill="#EEB1B1" cx="17.536" cy="5.054" rx="1.948" ry="1.944"/><ellipse stroke="#5D6D81" stroke-width="2" cx="17.926" cy="4.665" rx="3.897" ry="3.888"/><ellipse fill="#FFF" cx="31.175" cy="31.88" rx="3.897" ry="3.888"/><path d="M31.565 34.213c1.076 0 1.948-.87 1.948-1.944a1.946 1.946 0 0 0-1.948-1.944c-1.076 0-1.949.87-1.949 1.944 0 1.074.873 1.944 1.949 1.944z" fill="#7DDEB1"/><ellipse stroke="#5D6D81" stroke-width="2" cx="31.175" cy="31.88" rx="3.897" ry="3.888"/><ellipse fill="#FFF" cx="3.897" cy="34.213" rx="3.897" ry="3.888"/><ellipse fill="#EEB1B1" cx="3.507" cy="34.602" rx="1.948" ry="1.944"/><ellipse stroke="#5D6D81" stroke-width="2" cx="3.897" cy="34.213" rx="3.897" ry="3.888"/><ellipse fill="#EBB200" cx="20.654" cy="40.045" rx="2.728" ry="2.721"/><ellipse stroke="#5D6D81" stroke-width="2" cx="20.654" cy="40.045" rx="2.728" ry="2.721"/><ellipse fill="#FBD86A" cx="32.344" cy="13.607" rx="2.728" ry="2.721"/><ellipse stroke="#5D6D81" stroke-width="2" cx="32.344" cy="13.607" rx="2.728" ry="2.721"/><ellipse fill="#BDE495" cx="4.287" cy="17.495" rx="2.728" ry="2.721"/><ellipse stroke="#5D6D81" stroke-width="2" cx="4.287" cy="17.495" rx="2.728" ry="2.721"/><ellipse fill="#7DDEB1" cx="4.287" cy="2.721" rx="2.728" ry="2.721"/><ellipse stroke="#5D6D81" stroke-width="2" cx="4.287" cy="2.721" rx="2.728" ry="2.721"/><ellipse fill="#FFF" cx="18.315" cy="22.161" rx="5.845" ry="5.832"/><ellipse fill="#F08481" cx="18.315" cy="22.161" rx="3.507" ry="3.499"/><ellipse stroke="#5D6D81" stroke-width="2" cx="18.315" cy="22.161" rx="5.845" ry="5.832"/></g><path stroke="#5D6D81" stroke-width="2" d="M109.334 65.093H10.353V6.776h98.981v51.279"/><ellipse fill="#C5CDD7" cx="59.772" cy="74.276" rx="3.507" ry="3.499"/></g></g></svg>